<svg width="32" height="32" viewBox="0 0 32 32" fill="none" xmlns="http://www.w3.org/2000/svg">
  <defs>
    <linearGradient id="logoGradient" x1="0%" y1="0%" x2="100%" y2="100%">
      <stop offset="0%" stop-color="#0D0D0D" />
      <stop offset="100%" stop-color="#171717" />
    </linearGradient>
    <radialGradient id="pulseGlow" cx="50%" cy="50%" r="70%" fx="50%" fy="50%">
      <stop offset="0%" stop-color="#22D3EE" stop-opacity="0.1" />
      <stop offset="70%" stop-color="#22D3EE" stop-opacity="0.05" />
      <stop offset="100%" stop-color="#171717" stop-opacity="0" />
    </radialGradient>
  </defs>
  
  <!-- Main circle background -->
  <circle cx="16" cy="16" r="15.5" fill="url(#logoGradient)" stroke="#FFFFFF" stroke-width="0.5" />
  
  <!-- Glow effect -->
  <circle cx="16" cy="16" r="14" fill="url(#pulseGlow)" />
  
  <!-- Hexagonal globe structure - perfectly centered -->
  <path 
    d="M16 6L26 11.5V21.5L16 27L6 21.5V11.5L16 6Z" 
    stroke="#FFFFFF" 
    stroke-opacity="0.7" 
    stroke-width="0.8" 
    fill="none" 
  />
  
  <!-- Network connections -->
  <line x1="16" y1="6" x2="16" y2="27" stroke="#FFFFFF" stroke-opacity="0.6" stroke-width="0.6" />
  <line x1="6" y1="11.5" x2="26" y2="11.5" stroke="#FFFFFF" stroke-opacity="0.6" stroke-width="0.6" />
  <line x1="6" y1="21.5" x2="26" y2="21.5" stroke="#FFFFFF" stroke-opacity="0.6" stroke-width="0.6" />
  <line x1="6" y1="11.5" x2="16" y2="27" stroke="#FFFFFF" stroke-opacity="0.5" stroke-width="0.5" />
  <line x1="6" y1="21.5" x2="16" y2="6" stroke="#FFFFFF" stroke-opacity="0.5" stroke-width="0.5" />
  <line x1="26" y1="11.5" x2="16" y2="27" stroke="#FFFFFF" stroke-opacity="0.5" stroke-width="0.5" />
  <line x1="26" y1="21.5" x2="16" y2="6" stroke="#FFFFFF" stroke-opacity="0.5" stroke-width="0.5" />
  
  <!-- Connection nodes -->
  <circle cx="16" cy="6" r="0.9" fill="#22D3EE" />
  <circle cx="6" cy="11.5" r="0.9" fill="#22D3EE" />
  <circle cx="26" cy="11.5" r="0.9" fill="#22D3EE" />
  <circle cx="6" cy="21.5" r="0.9" fill="#22D3EE" />
  <circle cx="26" cy="21.5" r="0.9" fill="#22D3EE" />
  <circle cx="16" cy="27" r="0.9" fill="#22D3EE" />
  
  <!-- E shaped network within the hexagon -->
  <path 
    d="M12 10.5H20M12 16H18M12 21.5H20M12 10.5V21.5" 
    stroke="#FFFFFF" 
    stroke-width="1.6" 
    stroke-linecap="round" 
    stroke-linejoin="round"
  />
  
  <!-- Small data points -->
  <circle cx="20" cy="10.5" r="0.6" fill="#FFFFFF" fill-opacity="0.8" />
  <circle cx="18" cy="16" r="0.6" fill="#FFFFFF" fill-opacity="0.8" />
  <circle cx="20" cy="21.5" r="0.6" fill="#FFFFFF" fill-opacity="0.8" />
  
  <!-- Digital pulse ring -->
  <circle 
    cx="16" cy="16" r="13" 
    stroke="#22D3EE" 
    stroke-opacity="0.5" 
    stroke-width="0.5" 
    stroke-dasharray="1 3" 
    fill="none" 
  />
  
  <!-- Subtle outer ring -->
  <circle cx="16" cy="16" r="15.5" stroke="#FFFFFF" stroke-opacity="0.8" stroke-width="0.8" fill="none" />
</svg>
